<?xml version="1.0" encoding="UTF-8"?>
<svg id="Capa_1" xmlns="http://www.w3.org/2000/svg" version="1.1" viewBox="0 0 64 64">
  <!-- Generator: Adobe Illustrator 29.2.1, SVG Export Plug-In . SVG Version: 2.1.0 Build 116)  -->
  <defs>
    <style>
      .st0 {
        fill: #f4f7f9;
      }

      .st1 {
        fill: none;
        stroke: #b3b3b3;
        stroke-miterlimit: 10;
        stroke-width: .1px;
      }

      .st2 {
        display: none;
      }
    </style>
  </defs>
  <g id="Layer_1" class="st2">
    <g>
      <path class="st1" d="M2,2h60v60H2V2Z"/>
      <path class="st1" d="M32,2v60"/>
      <path class="st1" d="M62,32H2"/>
      <path class="st1" d="M2,2l60,60"/>
      <path class="st1" d="M10,10h44v44H10V10Z"/>
      <path class="st1" d="M62,2L2,62"/>
      <path class="st1" d="M2,32L32,2"/>
      <path class="st1" d="M32,2l30,30"/>
      <path class="st1" d="M62,32l-30,30"/>
      <path class="st1" d="M32,62L2,32"/>
      <circle class="st1" cx="32" cy="32" r="21"/>
    </g>
  </g>
  <g id="Layer_2">
    <path class="st0" d="M31.7,11.3c-7.6.1-13.5,6.6-13.5,14.3v3c0,1.9.3,3.6.6,5.4l1.5,6.5c.3,1.4,1,2.5,2.1,3.5l4.9,4c.6.5,1.5.9,2.4.9h4.8c.9,0,1.8-.3,2.4-.9l4.9-4c1-.9,1.8-2.1,2.1-3.5l1.5-6.5c.4-1.8.6-3.6.6-5.4v-3.5c-.3-7.6-6.5-13.9-14.3-13.8Z"/>
    <path class="st0" d="M50.8,30.1h-2.5v-5c0-9-7.3-16.3-16.3-16.3s-16.3,7.3-16.3,16.3v5h-2.5v-5c0-10.4,8.4-18.8,18.8-18.8s18.8,8.4,18.8,18.8v5Z"/>
    <path class="st0" d="M14.5,35.1h-2.5c-1.4,0-2.5-1.1-2.5-2.5v-6.3c0-1.4,1.1-2.5,2.5-2.5h3.8v10c0,.8-.5,1.3-1.3,1.3Z"/>
    <path class="st0" d="M52,36.4h-2.5c-.8,0-1.3-.5-1.3-1.3v-10h3.8c1.4,0,2.5,1.1,2.5,2.5v6.3c0,1.4-1.1,2.5-2.5,2.5Z"/>
    <path class="st0" d="M33.3,56.4v-2.5c9,0,16.3-7.3,16.3-16.3v-2.5h2.5v2.5c0,10.4-8.4,18.8-18.8,18.8Z"/>
    <path class="st0" d="M35.8,57.7h-6.3c-.8,0-1.3-.5-1.3-1.3v-2.5c0-.8.5-1.3,1.3-1.3h6.3c.8,0,1.3.5,1.3,1.3v2.5c0,.8-.5,1.3-1.3,1.3Z"/>
  </g>
</svg>